<svg width="20" height="21" viewBox="0 0 20 21" fill="none" xmlns="http://www.w3.org/2000/svg">
<g clip-path="url(#clip0_1368_5218)">
<path d="M15 4.21875H5C3.61929 4.21875 2.5 5.33804 2.5 6.71875V15.0521C2.5 16.4328 3.61929 17.5521 5 17.5521H15C16.3807 17.5521 17.5 16.4328 17.5 15.0521V6.71875C17.5 5.33804 16.3807 4.21875 15 4.21875Z" stroke="black" stroke-width="1.25" stroke-linecap="round" stroke-linejoin="round"/>
<path d="M7.49992 10.8861C8.42039 10.8861 9.16659 10.1399 9.16659 9.2194C9.16659 8.29893 8.42039 7.55273 7.49992 7.55273C6.57944 7.55273 5.83325 8.29893 5.83325 9.2194C5.83325 10.1399 6.57944 10.8861 7.49992 10.8861Z" stroke="black" stroke-width="1.25" stroke-linecap="round" stroke-linejoin="round"/>
<path d="M12.5 7.55273H14.1667" stroke="black" stroke-width="1.25" stroke-linecap="round" stroke-linejoin="round"/>
<path d="M12.5 10.8857H14.1667" stroke="black" stroke-width="1.25" stroke-linecap="round" stroke-linejoin="round"/>
<path d="M5.83325 14.2188H14.1666" stroke="black" stroke-width="1.25" stroke-linecap="round" stroke-linejoin="round"/>
</g>
<defs>
<clipPath id="clip0_1368_5218">
<rect width="20" height="20" fill="white" transform="translate(0 0.885742)"/>
</clipPath>
</defs>
</svg>
