<svg width="26" height="26" viewBox="0 0 26 26" fill="none" xmlns="http://www.w3.org/2000/svg">
<g clip-path="url(#clip0_2073_5472)">
<path d="M9.75004 7.58301H6.50004C5.9254 7.58301 5.3743 7.81128 4.96798 8.21761C4.56165 8.62394 4.33337 9.17504 4.33337 9.74967V19.4997C4.33337 20.0743 4.56165 20.6254 4.96798 21.0317C5.3743 21.4381 5.9254 21.6663 6.50004 21.6663H16.25C16.8247 21.6663 17.3758 21.4381 17.7821 21.0317C18.1884 20.6254 18.4167 20.0743 18.4167 19.4997V16.2497" stroke="#2C3E50" stroke-linecap="round" stroke-linejoin="round"/>
<path d="M9.75 16.2496H13L22.2083 7.04126C22.6393 6.61028 22.8814 6.02575 22.8814 5.41626C22.8814 4.80677 22.6393 4.22224 22.2083 3.79126C21.7774 3.36028 21.1928 3.11816 20.5833 3.11816C19.9738 3.11816 19.3893 3.36028 18.9583 3.79126L9.75 12.9996V16.2496Z" stroke="#2C3E50" stroke-linecap="round" stroke-linejoin="round"/>
<path d="M17.3334 5.41699L20.5834 8.66699" stroke="#2C3E50" stroke-linecap="round" stroke-linejoin="round"/>
</g>
<defs>
<clipPath id="clip0_2073_5472">
<rect width="26" height="26" fill="white"/>
</clipPath>
</defs>
</svg>
