<svg width="20" height="21" viewBox="0 0 20 21" fill="none" xmlns="http://www.w3.org/2000/svg">
<g clip-path="url(#clip0_1368_5348)">
<path d="M9.99992 17.5527L7.49992 15.0527H5.83325C5.17021 15.0527 4.53433 14.7893 4.06549 14.3205C3.59664 13.8517 3.33325 13.2158 3.33325 12.5527V7.55273C3.33325 6.88969 3.59664 6.25381 4.06549 5.78497C4.53433 5.31613 5.17021 5.05273 5.83325 5.05273H14.1666C14.8296 5.05273 15.4655 5.31613 15.9344 5.78497C16.4032 6.25381 16.6666 6.88969 16.6666 7.55273V12.5527C16.6666 13.2158 16.4032 13.8517 15.9344 14.3205C15.4655 14.7893 14.8296 15.0527 14.1666 15.0527H12.4999L9.99992 17.5527Z" stroke="black" stroke-width="1.25" stroke-linecap="round" stroke-linejoin="round"/>
<path d="M8.42721 9.21042L6.62988 11.0077L8.42721 12.8051M6.62988 11.0077H11.5725C12.0492 11.0077 12.5064 10.8184 12.8434 10.4813C13.1805 10.1443 13.3699 9.6871 13.3699 9.21042C13.3699 8.73373 13.1805 8.27658 12.8434 7.93951C12.5064 7.60245 12.0492 7.41309 11.5725 7.41309H11.1232" stroke="black" stroke-linecap="round" stroke-linejoin="round"/>
</g>
<defs>
<clipPath id="clip0_1368_5348">
<rect width="20" height="20" fill="white" transform="translate(0 0.885742)"/>
</clipPath>
</defs>
</svg>
