<svg width="20" height="21" viewBox="0 0 20 21" fill="none" xmlns="http://www.w3.org/2000/svg">
<g clip-path="url(#clip0_1368_5338)">
<path d="M6.66675 7.55273C6.66675 6.88969 6.97404 6.25381 7.52102 5.78497C8.068 5.31613 8.80987 5.05273 9.58341 5.05273H10.4167C11.1903 5.05273 11.9322 5.31613 12.4791 5.78497C13.0261 6.25381 13.3334 6.88969 13.3334 7.55273C13.3641 8.09378 13.2182 8.63015 12.9176 9.08105C12.617 9.53195 12.178 9.87297 11.6667 10.0527C11.1555 10.2924 10.7165 10.7471 10.4159 11.3483C10.1153 11.9495 9.9694 12.6647 10.0001 13.3861" stroke="black" stroke-width="1.25" stroke-linecap="round" stroke-linejoin="round"/>
<path d="M10 16.7188V16.7271" stroke="black" stroke-width="1.25" stroke-linecap="round" stroke-linejoin="round"/>
</g>
<defs>
<clipPath id="clip0_1368_5338">
<rect width="20" height="20" fill="white" transform="translate(0 0.885742)"/>
</clipPath>
</defs>
</svg>
