<svg width="33" height="33" viewBox="0 0 33 33" fill="none" xmlns="http://www.w3.org/2000/svg">
<rect x="1.44177" y="0.787598" width="31" height="31" rx="15.5" stroke="#DBDBDB"/>
<path d="M18.9382 12.228C20.0784 12.228 21.0027 11.3326 21.0027 10.228C21.0027 9.12346 20.0784 8.22803 18.9382 8.22803C17.798 8.22803 16.8737 9.12346 16.8737 10.228C16.8737 11.3326 17.798 12.228 18.9382 12.228Z" stroke="#616161" stroke-linecap="round" stroke-linejoin="round"/>
<path d="M8.61548 10.228H16.8735" stroke="#616161" stroke-linecap="round" stroke-linejoin="round"/>
<path d="M21.0027 10.228H25.1317" stroke="#616161" stroke-linecap="round" stroke-linejoin="round"/>
<path d="M12.7446 18.228C13.8848 18.228 14.8091 17.3326 14.8091 16.228C14.8091 15.1235 13.8848 14.228 12.7446 14.228C11.6044 14.228 10.6801 15.1235 10.6801 16.228C10.6801 17.3326 11.6044 18.228 12.7446 18.228Z" stroke="#616161" stroke-linecap="round" stroke-linejoin="round"/>
<path d="M8.61548 16.228H10.68" stroke="#616161" stroke-linecap="round" stroke-linejoin="round"/>
<path d="M14.8091 16.228H25.1317" stroke="#616161" stroke-linecap="round" stroke-linejoin="round"/>
<path d="M22.0349 24.228C23.1751 24.228 24.0994 23.3326 24.0994 22.228C24.0994 21.1235 23.1751 20.228 22.0349 20.228C20.8947 20.228 19.9703 21.1235 19.9703 22.228C19.9703 23.3326 20.8947 24.228 22.0349 24.228Z" stroke="#616161" stroke-linecap="round" stroke-linejoin="round"/>
<path d="M8.61548 22.228H19.9703" stroke="#616161" stroke-linecap="round" stroke-linejoin="round"/>
<path d="M24.0994 22.228H25.1316" stroke="#616161" stroke-linecap="round" stroke-linejoin="round"/>
</svg>
