<svg width="20" height="21" viewBox="0 0 20 21" fill="none" xmlns="http://www.w3.org/2000/svg">
<g clip-path="url(#clip0_673_4315)">
<path d="M13.3334 3.68896H6.66671C6.20647 3.68896 5.83337 4.06206 5.83337 4.5223V16.189C5.83337 16.6492 6.20647 17.0223 6.66671 17.0223H13.3334C13.7936 17.0223 14.1667 16.6492 14.1667 16.189V4.5223C14.1667 4.06206 13.7936 3.68896 13.3334 3.68896Z" stroke="black" stroke-width="1.25" stroke-linecap="round" stroke-linejoin="round"/>
<path d="M9.16663 4.52197H10.8333" stroke="black" stroke-width="1.25" stroke-linecap="round" stroke-linejoin="round"/>
<path d="M10 14.522V14.5303" stroke="black" stroke-width="1.25" stroke-linecap="round" stroke-linejoin="round"/>
<path d="M8.60602 10.746C8.60602 10.914 8.73802 11.046 8.90602 11.046C9.07402 11.046 9.21002 10.914 9.21002 10.746V9.35397L9.74202 10.174C9.80602 10.27 9.88602 10.33 9.99802 10.33C10.11 10.33 10.19 10.27 10.254 10.174L10.794 9.34197V10.738C10.794 10.906 10.93 11.046 11.098 11.046C11.27 11.046 11.406 10.91 11.406 10.738V8.51397C11.406 8.34197 11.27 8.20597 11.098 8.20597H11.03C10.906 8.20597 10.818 8.25797 10.754 8.36197L10.006 9.57797L9.26202 8.36597C9.20602 8.27397 9.11402 8.20597 8.98202 8.20597H8.91402C8.74202 8.20597 8.60602 8.34197 8.60602 8.51397V10.746Z" fill="black"/>
</g>
<defs>
<clipPath id="clip0_673_4315">
<rect width="20" height="20" fill="white" transform="translate(0 0.355469)"/>
</clipPath>
</defs>
</svg>
