<svg width="106" height="106" viewBox="0 0 106 106" fill="none" xmlns="http://www.w3.org/2000/svg">
<path d="M53 105.074C81.9922 105.074 105.495 81.6543 105.495 52.7648C105.495 23.8752 81.9922 0.455566 53 0.455566C24.0077 0.455566 0.504883 23.8752 0.504883 52.7648C0.504883 81.6543 24.0077 105.074 53 105.074Z" fill="currentColor"/>
<path d="M47.7961 72.7195C46.6151 72.7217 45.4652 72.3411 44.5202 71.6352L44.4617 71.5914L32.125 62.1794C31.5508 61.7442 31.0684 61.2004 30.7056 60.5791C30.3428 59.9578 30.1067 59.2712 30.0107 58.5587C29.9148 57.8463 29.961 57.122 30.1466 56.4273C30.3322 55.7327 30.6536 55.0814 31.0923 54.5107C31.5311 53.9401 32.0786 53.4615 32.7034 53.1021C33.3282 52.7428 34.018 52.51 34.7334 52.4169C35.4487 52.3238 36.1754 52.3723 36.8719 52.5597C37.5683 52.7471 38.2208 53.0697 38.7919 53.5089L46.7827 59.6144L65.6661 35.0748C66.104 34.5057 66.6502 34.028 67.2734 33.6692C67.8966 33.3103 68.5846 33.0773 69.2982 32.9835C70.0118 32.8896 70.737 32.9368 71.4323 33.1222C72.1276 33.3076 72.7795 33.6276 73.3506 34.064L73.2332 34.2229L73.3537 34.0664C74.5059 34.9487 75.2597 36.2505 75.4499 37.686C75.64 39.1215 75.2509 40.5736 74.368 41.7236L52.1567 70.588C51.643 71.2532 50.9824 71.7915 50.2262 72.1611C49.47 72.5308 48.6384 72.7218 47.7961 72.7195Z" fill="white"/>
</svg>
