<svg width="36" height="36" viewBox="0 0 36 36" fill="none" xmlns="http://www.w3.org/2000/svg">
<path d="M34.1561 5.90171C32.5404 6.69335 30.9572 7.01486 29.3092 7.50116C27.4981 5.45742 24.813 5.34432 22.2329 6.31046C19.6528 7.27659 17.9628 9.6386 18 12.348V13.9636C12.7574 14.0977 8.08825 11.7098 5.07515 7.50116C5.07515 7.50116 -1.68132 19.51 11.5376 25.2728C8.51315 27.2875 5.49682 28.6462 1.84393 28.504C7.18836 31.417 13.0126 32.4186 18.0549 30.9549C23.8388 29.2747 28.5919 24.94 30.4159 18.4469C30.96 16.4721 31.2302 14.4319 31.2189 12.3835C31.2157 11.9812 33.6584 7.90506 34.1561 5.90009V5.90171Z" fill="#0075FF"/>
</svg>
